<mxfile host="Electron" agent="Mozilla/5.0 (Macintosh; Intel Mac OS X 10_15_7) AppleWebKit/537.36 (KHTML, like Gecko) draw.io/28.1.2 Chrome/138.0.7204.243 Electron/37.4.0 Safari/537.36" version="28.1.2">
  <diagram name="第 1 页" id="2ChL8ousL4zxAJG9sqZH">
    <mxGraphModel dx="941" dy="805" grid="0" gridSize="10" guides="1" tooltips="1" connect="1" arrows="1" fold="1" page="1" pageScale="1" pageWidth="1000" pageHeight="5000" background="none" math="0" shadow="0">
      <root>
        <mxCell id="0" />
        <mxCell id="1" parent="0" />
        <mxCell id="rqJbpcBszAOMCiAs2xC1-92" value="" style="group" vertex="1" connectable="0" parent="1">
          <mxGeometry x="528" y="30" width="440" height="330" as="geometry" />
        </mxCell>
        <mxCell id="rqJbpcBszAOMCiAs2xC1-49" value="" style="rounded=0;whiteSpace=wrap;html=1;fillColor=#f5f5f5;strokeColor=#666666;fontColor=#333333;" vertex="1" parent="rqJbpcBszAOMCiAs2xC1-92">
          <mxGeometry x="30" y="261" width="120" height="40" as="geometry" />
        </mxCell>
        <mxCell id="rqJbpcBszAOMCiAs2xC1-50" value="" style="rounded=1;whiteSpace=wrap;html=1;fillColor=#fff2cc;strokeColor=#d6b656;" vertex="1" parent="rqJbpcBszAOMCiAs2xC1-92">
          <mxGeometry width="440" height="330" as="geometry" />
        </mxCell>
        <mxCell id="rqJbpcBszAOMCiAs2xC1-51" value="" style="rounded=0;whiteSpace=wrap;html=1;fillColor=#bac8d3;strokeColor=#23445d;" vertex="1" parent="rqJbpcBszAOMCiAs2xC1-92">
          <mxGeometry x="20" y="20" width="140" height="294" as="geometry" />
        </mxCell>
        <mxCell id="rqJbpcBszAOMCiAs2xC1-52" value="" style="rounded=0;whiteSpace=wrap;html=1;fillColor=#d5e8d4;strokeColor=#82b366;" vertex="1" parent="rqJbpcBszAOMCiAs2xC1-92">
          <mxGeometry x="30" y="221" width="120" height="40" as="geometry" />
        </mxCell>
        <mxCell id="rqJbpcBszAOMCiAs2xC1-53" value="" style="rounded=0;whiteSpace=wrap;html=1;fillColor=#fad7ac;strokeColor=#b46504;" vertex="1" parent="rqJbpcBszAOMCiAs2xC1-92">
          <mxGeometry x="30" y="181" width="120" height="40" as="geometry" />
        </mxCell>
        <mxCell id="rqJbpcBszAOMCiAs2xC1-54" value="" style="rounded=0;whiteSpace=wrap;html=1;fillColor=#d0cee2;strokeColor=#56517e;" vertex="1" parent="rqJbpcBszAOMCiAs2xC1-92">
          <mxGeometry x="30" y="141" width="120" height="40" as="geometry" />
        </mxCell>
        <mxCell id="rqJbpcBszAOMCiAs2xC1-55" value="" style="rounded=0;whiteSpace=wrap;html=1;fillColor=#b1ddf0;strokeColor=#10739e;" vertex="1" parent="rqJbpcBszAOMCiAs2xC1-92">
          <mxGeometry x="30" y="101" width="120" height="40" as="geometry" />
        </mxCell>
        <mxCell id="rqJbpcBszAOMCiAs2xC1-56" value="" style="rounded=0;whiteSpace=wrap;html=1;fillColor=#b0e3e6;strokeColor=#0e8088;" vertex="1" parent="rqJbpcBszAOMCiAs2xC1-92">
          <mxGeometry x="30" y="61" width="120" height="40" as="geometry" />
        </mxCell>
        <mxCell id="rqJbpcBszAOMCiAs2xC1-57" value="&lt;span style=&quot;font-size: 18px;&quot;&gt;hash1&lt;/span&gt;" style="text;html=1;align=center;verticalAlign=middle;whiteSpace=wrap;rounded=0;" vertex="1" parent="rqJbpcBszAOMCiAs2xC1-92">
          <mxGeometry x="30" y="66" width="60" height="30" as="geometry" />
        </mxCell>
        <mxCell id="rqJbpcBszAOMCiAs2xC1-58" style="edgeStyle=orthogonalEdgeStyle;rounded=0;orthogonalLoop=1;jettySize=auto;html=1;exitX=1;exitY=0.5;exitDx=0;exitDy=0;entryX=0;entryY=0.5;entryDx=0;entryDy=0;" edge="1" parent="rqJbpcBszAOMCiAs2xC1-92" source="rqJbpcBszAOMCiAs2xC1-59" target="rqJbpcBszAOMCiAs2xC1-67">
          <mxGeometry relative="1" as="geometry" />
        </mxCell>
        <mxCell id="rqJbpcBszAOMCiAs2xC1-59" value="&lt;font style=&quot;font-size: 14px;&quot;&gt;&amp;lt;K,V&amp;gt;&lt;/font&gt;" style="rounded=1;whiteSpace=wrap;html=1;fillColor=#f8cecc;strokeColor=#b85450;gradientColor=#ea6b66;" vertex="1" parent="rqJbpcBszAOMCiAs2xC1-92">
          <mxGeometry x="90" y="66" width="50" height="30" as="geometry" />
        </mxCell>
        <mxCell id="rqJbpcBszAOMCiAs2xC1-60" value="&lt;span style=&quot;font-size: 18px;&quot;&gt;hash2&lt;/span&gt;" style="text;html=1;align=center;verticalAlign=middle;whiteSpace=wrap;rounded=0;" vertex="1" parent="rqJbpcBszAOMCiAs2xC1-92">
          <mxGeometry x="30" y="106" width="60" height="30" as="geometry" />
        </mxCell>
        <mxCell id="rqJbpcBszAOMCiAs2xC1-61" value="&lt;font style=&quot;font-size: 18px;&quot;&gt;hash3&lt;/font&gt;" style="text;html=1;align=center;verticalAlign=middle;whiteSpace=wrap;rounded=0;" vertex="1" parent="rqJbpcBszAOMCiAs2xC1-92">
          <mxGeometry x="30" y="146" width="60" height="30" as="geometry" />
        </mxCell>
        <mxCell id="rqJbpcBszAOMCiAs2xC1-62" value="&lt;font style=&quot;font-size: 18px;&quot;&gt;hash4&lt;/font&gt;" style="text;html=1;align=center;verticalAlign=middle;whiteSpace=wrap;rounded=0;" vertex="1" parent="rqJbpcBszAOMCiAs2xC1-92">
          <mxGeometry x="30" y="186" width="60" height="30" as="geometry" />
        </mxCell>
        <mxCell id="rqJbpcBszAOMCiAs2xC1-63" value="&lt;span style=&quot;font-size: 18px;&quot;&gt;hash5&lt;/span&gt;" style="text;html=1;align=center;verticalAlign=middle;whiteSpace=wrap;rounded=0;" vertex="1" parent="rqJbpcBszAOMCiAs2xC1-92">
          <mxGeometry x="30" y="227" width="60" height="30" as="geometry" />
        </mxCell>
        <mxCell id="rqJbpcBszAOMCiAs2xC1-64" value="" style="rounded=0;whiteSpace=wrap;html=1;fillColor=#FFFF66;strokeColor=#0e8088;" vertex="1" parent="rqJbpcBszAOMCiAs2xC1-92">
          <mxGeometry x="30" y="261" width="120" height="40" as="geometry" />
        </mxCell>
        <mxCell id="rqJbpcBszAOMCiAs2xC1-65" value="&lt;span style=&quot;font-size: 18px;&quot;&gt;hash6&lt;/span&gt;" style="text;html=1;align=center;verticalAlign=middle;whiteSpace=wrap;rounded=0;" vertex="1" parent="rqJbpcBszAOMCiAs2xC1-92">
          <mxGeometry x="30" y="266" width="60" height="32" as="geometry" />
        </mxCell>
        <mxCell id="rqJbpcBszAOMCiAs2xC1-66" style="edgeStyle=orthogonalEdgeStyle;rounded=0;orthogonalLoop=1;jettySize=auto;html=1;exitX=1;exitY=0.5;exitDx=0;exitDy=0;entryX=0;entryY=0.5;entryDx=0;entryDy=0;" edge="1" parent="rqJbpcBszAOMCiAs2xC1-92" source="rqJbpcBszAOMCiAs2xC1-67" target="rqJbpcBszAOMCiAs2xC1-68">
          <mxGeometry relative="1" as="geometry" />
        </mxCell>
        <mxCell id="rqJbpcBszAOMCiAs2xC1-67" value="&lt;font style=&quot;font-size: 14px;&quot;&gt;&amp;lt;K,V&amp;gt;&lt;/font&gt;" style="rounded=1;whiteSpace=wrap;html=1;fillColor=#f8cecc;strokeColor=#b85450;gradientColor=#ea6b66;" vertex="1" parent="rqJbpcBszAOMCiAs2xC1-92">
          <mxGeometry x="160" y="66" width="50" height="30" as="geometry" />
        </mxCell>
        <mxCell id="rqJbpcBszAOMCiAs2xC1-68" value="&lt;font style=&quot;font-size: 14px;&quot;&gt;&amp;lt;K,V&amp;gt;&lt;/font&gt;" style="rounded=1;whiteSpace=wrap;html=1;fillColor=#f8cecc;strokeColor=#b85450;gradientColor=#ea6b66;" vertex="1" parent="rqJbpcBszAOMCiAs2xC1-92">
          <mxGeometry x="230" y="66" width="50" height="30" as="geometry" />
        </mxCell>
        <mxCell id="rqJbpcBszAOMCiAs2xC1-69" style="edgeStyle=orthogonalEdgeStyle;rounded=0;orthogonalLoop=1;jettySize=auto;html=1;exitX=1;exitY=0.5;exitDx=0;exitDy=0;" edge="1" parent="rqJbpcBszAOMCiAs2xC1-92" source="rqJbpcBszAOMCiAs2xC1-70" target="rqJbpcBszAOMCiAs2xC1-71">
          <mxGeometry relative="1" as="geometry" />
        </mxCell>
        <mxCell id="rqJbpcBszAOMCiAs2xC1-70" value="&lt;font style=&quot;font-size: 14px;&quot;&gt;&amp;lt;K,V&amp;gt;&lt;/font&gt;" style="rounded=1;whiteSpace=wrap;html=1;fillColor=#f8cecc;strokeColor=#b85450;gradientColor=#ea6b66;" vertex="1" parent="rqJbpcBszAOMCiAs2xC1-92">
          <mxGeometry x="90" y="186" width="50" height="30" as="geometry" />
        </mxCell>
        <mxCell id="rqJbpcBszAOMCiAs2xC1-71" value="&lt;font style=&quot;font-size: 14px;&quot;&gt;&amp;lt;K,V&amp;gt;&lt;/font&gt;" style="rounded=1;whiteSpace=wrap;html=1;fillColor=#f8cecc;strokeColor=#b85450;gradientColor=#ea6b66;" vertex="1" parent="rqJbpcBszAOMCiAs2xC1-92">
          <mxGeometry x="160" y="186" width="50" height="30" as="geometry" />
        </mxCell>
        <mxCell id="rqJbpcBszAOMCiAs2xC1-90" style="edgeStyle=orthogonalEdgeStyle;rounded=0;orthogonalLoop=1;jettySize=auto;html=1;exitX=1;exitY=0.5;exitDx=0;exitDy=0;entryX=0;entryY=0.5;entryDx=0;entryDy=0;fontFamily=Helvetica;fontSize=12;fontColor=default;" edge="1" parent="rqJbpcBszAOMCiAs2xC1-92" source="rqJbpcBszAOMCiAs2xC1-73" target="rqJbpcBszAOMCiAs2xC1-78">
          <mxGeometry relative="1" as="geometry">
            <Array as="points">
              <mxPoint x="165" y="283" />
              <mxPoint x="165" y="253" />
            </Array>
          </mxGeometry>
        </mxCell>
        <mxCell id="rqJbpcBszAOMCiAs2xC1-91" style="edgeStyle=orthogonalEdgeStyle;rounded=0;orthogonalLoop=1;jettySize=auto;html=1;exitX=1;exitY=0.5;exitDx=0;exitDy=0;entryX=0;entryY=0.5;entryDx=0;entryDy=0;fontFamily=Helvetica;fontSize=12;fontColor=default;" edge="1" parent="rqJbpcBszAOMCiAs2xC1-92" source="rqJbpcBszAOMCiAs2xC1-73" target="rqJbpcBszAOMCiAs2xC1-80">
          <mxGeometry relative="1" as="geometry">
            <Array as="points">
              <mxPoint x="165" y="283" />
              <mxPoint x="165" y="309" />
            </Array>
          </mxGeometry>
        </mxCell>
        <mxCell id="rqJbpcBszAOMCiAs2xC1-73" value="&lt;font style=&quot;font-size: 14px; color: rgb(255, 255, 255);&quot;&gt;&amp;lt;K,V&amp;gt;&lt;/font&gt;" style="rounded=1;whiteSpace=wrap;html=1;fillColor=#000000;strokeColor=#000000;" vertex="1" parent="rqJbpcBszAOMCiAs2xC1-92">
          <mxGeometry x="90" y="268" width="50" height="30" as="geometry" />
        </mxCell>
        <mxCell id="rqJbpcBszAOMCiAs2xC1-76" value="&lt;font style=&quot;font-size: 14px;&quot;&gt;&amp;lt;K,V&amp;gt;&lt;/font&gt;" style="rounded=1;whiteSpace=wrap;html=1;fillColor=#f8cecc;strokeColor=#b85450;gradientColor=#ea6b66;" vertex="1" parent="rqJbpcBszAOMCiAs2xC1-92">
          <mxGeometry x="90" y="147" width="51.67" height="31" as="geometry" />
        </mxCell>
        <mxCell id="rqJbpcBszAOMCiAs2xC1-87" style="edgeStyle=orthogonalEdgeStyle;rounded=0;orthogonalLoop=1;jettySize=auto;html=1;exitX=1;exitY=0.5;exitDx=0;exitDy=0;entryX=0;entryY=0.5;entryDx=0;entryDy=0;fontFamily=Helvetica;fontSize=12;fontColor=default;" edge="1" parent="rqJbpcBszAOMCiAs2xC1-92" source="rqJbpcBszAOMCiAs2xC1-78" target="rqJbpcBszAOMCiAs2xC1-84">
          <mxGeometry relative="1" as="geometry">
            <Array as="points">
              <mxPoint x="237" y="253" />
              <mxPoint x="237" y="223" />
            </Array>
          </mxGeometry>
        </mxCell>
        <mxCell id="rqJbpcBszAOMCiAs2xC1-89" style="edgeStyle=orthogonalEdgeStyle;rounded=0;orthogonalLoop=1;jettySize=auto;html=1;exitX=1;exitY=0.5;exitDx=0;exitDy=0;entryX=0;entryY=0.5;entryDx=0;entryDy=0;fontFamily=Helvetica;fontSize=12;fontColor=default;" edge="1" parent="rqJbpcBszAOMCiAs2xC1-92" source="rqJbpcBszAOMCiAs2xC1-78" target="rqJbpcBszAOMCiAs2xC1-86">
          <mxGeometry relative="1" as="geometry">
            <Array as="points">
              <mxPoint x="237" y="253" />
              <mxPoint x="237" y="268" />
            </Array>
          </mxGeometry>
        </mxCell>
        <mxCell id="rqJbpcBszAOMCiAs2xC1-78" value="&lt;font style=&quot;font-size: 14px;&quot;&gt;&amp;lt;K,V&amp;gt;&lt;/font&gt;" style="rounded=1;whiteSpace=wrap;html=1;fillColor=#f8cecc;strokeColor=#b85450;gradientColor=#ea6b66;" vertex="1" parent="rqJbpcBszAOMCiAs2xC1-92">
          <mxGeometry x="180" y="238" width="50" height="30" as="geometry" />
        </mxCell>
        <mxCell id="rqJbpcBszAOMCiAs2xC1-79" style="edgeStyle=orthogonalEdgeStyle;rounded=0;orthogonalLoop=1;jettySize=auto;html=1;exitX=1;exitY=0.5;exitDx=0;exitDy=0;" edge="1" parent="rqJbpcBszAOMCiAs2xC1-92" source="rqJbpcBszAOMCiAs2xC1-80" target="rqJbpcBszAOMCiAs2xC1-81">
          <mxGeometry relative="1" as="geometry" />
        </mxCell>
        <mxCell id="rqJbpcBszAOMCiAs2xC1-80" value="&lt;font style=&quot;font-size: 14px;&quot;&gt;&amp;lt;K,V&amp;gt;&lt;/font&gt;" style="rounded=1;whiteSpace=wrap;html=1;fillColor=#f8cecc;strokeColor=#b85450;gradientColor=#ea6b66;" vertex="1" parent="rqJbpcBszAOMCiAs2xC1-92">
          <mxGeometry x="180" y="294" width="50" height="30" as="geometry" />
        </mxCell>
        <mxCell id="rqJbpcBszAOMCiAs2xC1-81" value="&lt;font style=&quot;font-size: 14px;&quot;&gt;&amp;lt;K,V&amp;gt;&lt;/font&gt;" style="rounded=1;whiteSpace=wrap;html=1;fillColor=#f8cecc;strokeColor=#b85450;gradientColor=#ea6b66;" vertex="1" parent="rqJbpcBszAOMCiAs2xC1-92">
          <mxGeometry x="251" y="294" width="50" height="30" as="geometry" />
        </mxCell>
        <mxCell id="rqJbpcBszAOMCiAs2xC1-82" value="&lt;font style=&quot;font-size: 36px;&quot;&gt;HashMap&lt;/font&gt;" style="text;html=1;align=center;verticalAlign=middle;whiteSpace=wrap;rounded=0;" vertex="1" parent="rqJbpcBszAOMCiAs2xC1-92">
          <mxGeometry x="290" y="10" width="60" height="30" as="geometry" />
        </mxCell>
        <mxCell id="rqJbpcBszAOMCiAs2xC1-83" value="&lt;font style=&quot;font-size: 24px;&quot;&gt;table&lt;/font&gt;" style="text;html=1;align=center;verticalAlign=middle;whiteSpace=wrap;rounded=0;" vertex="1" parent="rqJbpcBszAOMCiAs2xC1-92">
          <mxGeometry x="60" y="26" width="60" height="30" as="geometry" />
        </mxCell>
        <mxCell id="rqJbpcBszAOMCiAs2xC1-84" value="&lt;font style=&quot;font-size: 14px; color: rgb(255, 255, 255);&quot;&gt;&amp;lt;K,V&amp;gt;&lt;/font&gt;" style="rounded=1;whiteSpace=wrap;html=1;fillColor=#000000;strokeColor=#000000;" vertex="1" parent="rqJbpcBszAOMCiAs2xC1-92">
          <mxGeometry x="251" y="208" width="50" height="30" as="geometry" />
        </mxCell>
        <mxCell id="rqJbpcBszAOMCiAs2xC1-86" value="&lt;font style=&quot;font-size: 14px; color: rgb(255, 255, 255);&quot;&gt;&amp;lt;K,V&amp;gt;&lt;/font&gt;" style="rounded=1;whiteSpace=wrap;html=1;fillColor=#000000;strokeColor=#000000;" vertex="1" parent="rqJbpcBszAOMCiAs2xC1-92">
          <mxGeometry x="251" y="253" width="50" height="30" as="geometry" />
        </mxCell>
        <mxCell id="rqJbpcBszAOMCiAs2xC1-29" value="" style="rounded=0;whiteSpace=wrap;html=1;fillColor=#f5f5f5;strokeColor=#666666;fontColor=#333333;" vertex="1" parent="1">
          <mxGeometry x="80" y="291" width="120" height="40" as="geometry" />
        </mxCell>
        <mxCell id="rqJbpcBszAOMCiAs2xC1-38" value="" style="rounded=1;whiteSpace=wrap;html=1;fillColor=#fff2cc;strokeColor=#d6b656;" vertex="1" parent="1">
          <mxGeometry x="50" y="30" width="440" height="330" as="geometry" />
        </mxCell>
        <mxCell id="rqJbpcBszAOMCiAs2xC1-39" value="" style="rounded=0;whiteSpace=wrap;html=1;fillColor=#bac8d3;strokeColor=#23445d;" vertex="1" parent="1">
          <mxGeometry x="70" y="50" width="140" height="294" as="geometry" />
        </mxCell>
        <mxCell id="rqJbpcBszAOMCiAs2xC1-28" value="" style="rounded=0;whiteSpace=wrap;html=1;fillColor=#d5e8d4;strokeColor=#82b366;" vertex="1" parent="1">
          <mxGeometry x="80" y="251" width="120" height="40" as="geometry" />
        </mxCell>
        <mxCell id="rqJbpcBszAOMCiAs2xC1-27" value="" style="rounded=0;whiteSpace=wrap;html=1;fillColor=#fad7ac;strokeColor=#b46504;" vertex="1" parent="1">
          <mxGeometry x="80" y="211" width="120" height="40" as="geometry" />
        </mxCell>
        <mxCell id="rqJbpcBszAOMCiAs2xC1-26" value="" style="rounded=0;whiteSpace=wrap;html=1;fillColor=#d0cee2;strokeColor=#56517e;" vertex="1" parent="1">
          <mxGeometry x="80" y="171" width="120" height="40" as="geometry" />
        </mxCell>
        <mxCell id="rqJbpcBszAOMCiAs2xC1-25" value="" style="rounded=0;whiteSpace=wrap;html=1;fillColor=#b1ddf0;strokeColor=#10739e;" vertex="1" parent="1">
          <mxGeometry x="80" y="131" width="120" height="40" as="geometry" />
        </mxCell>
        <mxCell id="rqJbpcBszAOMCiAs2xC1-1" value="" style="rounded=0;whiteSpace=wrap;html=1;fillColor=#b0e3e6;strokeColor=#0e8088;" vertex="1" parent="1">
          <mxGeometry x="80" y="91" width="120" height="40" as="geometry" />
        </mxCell>
        <mxCell id="rqJbpcBszAOMCiAs2xC1-8" value="&lt;span style=&quot;font-size: 18px;&quot;&gt;hash1&lt;/span&gt;" style="text;html=1;align=center;verticalAlign=middle;whiteSpace=wrap;rounded=0;" vertex="1" parent="1">
          <mxGeometry x="80" y="96" width="60" height="30" as="geometry" />
        </mxCell>
        <mxCell id="rqJbpcBszAOMCiAs2xC1-31" style="edgeStyle=orthogonalEdgeStyle;rounded=0;orthogonalLoop=1;jettySize=auto;html=1;exitX=1;exitY=0.5;exitDx=0;exitDy=0;entryX=0;entryY=0.5;entryDx=0;entryDy=0;" edge="1" parent="1" source="rqJbpcBszAOMCiAs2xC1-9" target="rqJbpcBszAOMCiAs2xC1-15">
          <mxGeometry relative="1" as="geometry" />
        </mxCell>
        <mxCell id="rqJbpcBszAOMCiAs2xC1-9" value="&lt;font style=&quot;font-size: 14px;&quot;&gt;&amp;lt;K,V&amp;gt;&lt;/font&gt;" style="rounded=1;whiteSpace=wrap;html=1;fillColor=#ffcd28;strokeColor=#d79b00;gradientColor=#ffa500;" vertex="1" parent="1">
          <mxGeometry x="140" y="96" width="50" height="30" as="geometry" />
        </mxCell>
        <mxCell id="rqJbpcBszAOMCiAs2xC1-10" value="&lt;span style=&quot;font-size: 18px;&quot;&gt;hash2&lt;/span&gt;" style="text;html=1;align=center;verticalAlign=middle;whiteSpace=wrap;rounded=0;" vertex="1" parent="1">
          <mxGeometry x="80" y="136" width="60" height="30" as="geometry" />
        </mxCell>
        <mxCell id="rqJbpcBszAOMCiAs2xC1-11" value="&lt;font style=&quot;font-size: 18px;&quot;&gt;hash3&lt;/font&gt;" style="text;html=1;align=center;verticalAlign=middle;whiteSpace=wrap;rounded=0;" vertex="1" parent="1">
          <mxGeometry x="80" y="176" width="60" height="30" as="geometry" />
        </mxCell>
        <mxCell id="rqJbpcBszAOMCiAs2xC1-12" value="&lt;font style=&quot;font-size: 18px;&quot;&gt;hash4&lt;/font&gt;" style="text;html=1;align=center;verticalAlign=middle;whiteSpace=wrap;rounded=0;" vertex="1" parent="1">
          <mxGeometry x="80" y="216" width="60" height="30" as="geometry" />
        </mxCell>
        <mxCell id="rqJbpcBszAOMCiAs2xC1-13" value="&lt;span style=&quot;font-size: 18px;&quot;&gt;hash5&lt;/span&gt;" style="text;html=1;align=center;verticalAlign=middle;whiteSpace=wrap;rounded=0;" vertex="1" parent="1">
          <mxGeometry x="80" y="257" width="60" height="30" as="geometry" />
        </mxCell>
        <mxCell id="rqJbpcBszAOMCiAs2xC1-40" value="" style="rounded=0;whiteSpace=wrap;html=1;fillColor=#FFFF66;strokeColor=#0e8088;" vertex="1" parent="1">
          <mxGeometry x="80" y="291" width="120" height="40" as="geometry" />
        </mxCell>
        <mxCell id="rqJbpcBszAOMCiAs2xC1-14" value="&lt;span style=&quot;font-size: 18px;&quot;&gt;hash6&lt;/span&gt;" style="text;html=1;align=center;verticalAlign=middle;whiteSpace=wrap;rounded=0;" vertex="1" parent="1">
          <mxGeometry x="80" y="296" width="60" height="32" as="geometry" />
        </mxCell>
        <mxCell id="rqJbpcBszAOMCiAs2xC1-32" style="edgeStyle=orthogonalEdgeStyle;rounded=0;orthogonalLoop=1;jettySize=auto;html=1;exitX=1;exitY=0.5;exitDx=0;exitDy=0;entryX=0;entryY=0.5;entryDx=0;entryDy=0;" edge="1" parent="1" source="rqJbpcBszAOMCiAs2xC1-15" target="rqJbpcBszAOMCiAs2xC1-16">
          <mxGeometry relative="1" as="geometry" />
        </mxCell>
        <mxCell id="rqJbpcBszAOMCiAs2xC1-15" value="&lt;font style=&quot;font-size: 14px;&quot;&gt;&amp;lt;K,V&amp;gt;&lt;/font&gt;" style="rounded=1;whiteSpace=wrap;html=1;fillColor=#ffcd28;strokeColor=#d79b00;gradientColor=#ffa500;" vertex="1" parent="1">
          <mxGeometry x="210" y="96" width="50" height="30" as="geometry" />
        </mxCell>
        <mxCell id="rqJbpcBszAOMCiAs2xC1-16" value="&lt;font style=&quot;font-size: 14px;&quot;&gt;&amp;lt;K,V&amp;gt;&lt;/font&gt;" style="rounded=1;whiteSpace=wrap;html=1;fillColor=#ffcd28;strokeColor=#d79b00;gradientColor=#ffa500;" vertex="1" parent="1">
          <mxGeometry x="280" y="96" width="50" height="30" as="geometry" />
        </mxCell>
        <mxCell id="rqJbpcBszAOMCiAs2xC1-33" style="edgeStyle=orthogonalEdgeStyle;rounded=0;orthogonalLoop=1;jettySize=auto;html=1;exitX=1;exitY=0.5;exitDx=0;exitDy=0;" edge="1" parent="1" source="rqJbpcBszAOMCiAs2xC1-17" target="rqJbpcBszAOMCiAs2xC1-18">
          <mxGeometry relative="1" as="geometry" />
        </mxCell>
        <mxCell id="rqJbpcBszAOMCiAs2xC1-17" value="&lt;font style=&quot;font-size: 14px;&quot;&gt;&amp;lt;K,V&amp;gt;&lt;/font&gt;" style="rounded=1;whiteSpace=wrap;html=1;fillColor=#ffcd28;strokeColor=#d79b00;gradientColor=#ffa500;" vertex="1" parent="1">
          <mxGeometry x="140" y="216" width="50" height="30" as="geometry" />
        </mxCell>
        <mxCell id="rqJbpcBszAOMCiAs2xC1-18" value="&lt;font style=&quot;font-size: 14px;&quot;&gt;&amp;lt;K,V&amp;gt;&lt;/font&gt;" style="rounded=1;whiteSpace=wrap;html=1;fillColor=#ffcd28;strokeColor=#d79b00;gradientColor=#ffa500;" vertex="1" parent="1">
          <mxGeometry x="210" y="216" width="50" height="30" as="geometry" />
        </mxCell>
        <mxCell id="rqJbpcBszAOMCiAs2xC1-34" style="edgeStyle=orthogonalEdgeStyle;rounded=0;orthogonalLoop=1;jettySize=auto;html=1;exitX=1;exitY=0.5;exitDx=0;exitDy=0;entryX=0;entryY=0.5;entryDx=0;entryDy=0;" edge="1" parent="1" source="rqJbpcBszAOMCiAs2xC1-19" target="rqJbpcBszAOMCiAs2xC1-20">
          <mxGeometry relative="1" as="geometry" />
        </mxCell>
        <mxCell id="rqJbpcBszAOMCiAs2xC1-19" value="&lt;font style=&quot;font-size: 14px;&quot;&gt;&amp;lt;K,V&amp;gt;&lt;/font&gt;" style="rounded=1;whiteSpace=wrap;html=1;fillColor=#ffcd28;strokeColor=#d79b00;gradientColor=#ffa500;" vertex="1" parent="1">
          <mxGeometry x="140" y="298" width="50" height="30" as="geometry" />
        </mxCell>
        <mxCell id="rqJbpcBszAOMCiAs2xC1-35" style="edgeStyle=orthogonalEdgeStyle;rounded=0;orthogonalLoop=1;jettySize=auto;html=1;exitX=1;exitY=0.5;exitDx=0;exitDy=0;entryX=0;entryY=0.5;entryDx=0;entryDy=0;" edge="1" parent="1" source="rqJbpcBszAOMCiAs2xC1-20" target="rqJbpcBszAOMCiAs2xC1-22">
          <mxGeometry relative="1" as="geometry" />
        </mxCell>
        <mxCell id="rqJbpcBszAOMCiAs2xC1-20" value="&lt;font style=&quot;font-size: 14px;&quot;&gt;&amp;lt;K,V&amp;gt;&lt;/font&gt;" style="rounded=1;whiteSpace=wrap;html=1;fillColor=#ffcd28;strokeColor=#d79b00;gradientColor=#ffa500;" vertex="1" parent="1">
          <mxGeometry x="210" y="298" width="50" height="30" as="geometry" />
        </mxCell>
        <mxCell id="rqJbpcBszAOMCiAs2xC1-21" value="&lt;font style=&quot;font-size: 14px;&quot;&gt;&amp;lt;K,V&amp;gt;&lt;/font&gt;" style="rounded=1;whiteSpace=wrap;html=1;fillColor=#ffcd28;strokeColor=#d79b00;gradientColor=#ffa500;" vertex="1" parent="1">
          <mxGeometry x="140" y="177" width="50" height="30" as="geometry" />
        </mxCell>
        <mxCell id="rqJbpcBszAOMCiAs2xC1-36" style="edgeStyle=orthogonalEdgeStyle;rounded=0;orthogonalLoop=1;jettySize=auto;html=1;exitX=1;exitY=0.5;exitDx=0;exitDy=0;entryX=0;entryY=0.5;entryDx=0;entryDy=0;" edge="1" parent="1" source="rqJbpcBszAOMCiAs2xC1-22" target="rqJbpcBszAOMCiAs2xC1-23">
          <mxGeometry relative="1" as="geometry" />
        </mxCell>
        <mxCell id="rqJbpcBszAOMCiAs2xC1-22" value="&lt;font style=&quot;font-size: 14px;&quot;&gt;&amp;lt;K,V&amp;gt;&lt;/font&gt;" style="rounded=1;whiteSpace=wrap;html=1;fillColor=#ffcd28;strokeColor=#d79b00;gradientColor=#ffa500;" vertex="1" parent="1">
          <mxGeometry x="280" y="298" width="50" height="30" as="geometry" />
        </mxCell>
        <mxCell id="rqJbpcBszAOMCiAs2xC1-37" style="edgeStyle=orthogonalEdgeStyle;rounded=0;orthogonalLoop=1;jettySize=auto;html=1;exitX=1;exitY=0.5;exitDx=0;exitDy=0;" edge="1" parent="1" source="rqJbpcBszAOMCiAs2xC1-23" target="rqJbpcBszAOMCiAs2xC1-24">
          <mxGeometry relative="1" as="geometry" />
        </mxCell>
        <mxCell id="rqJbpcBszAOMCiAs2xC1-23" value="&lt;font style=&quot;font-size: 14px;&quot;&gt;&amp;lt;K,V&amp;gt;&lt;/font&gt;" style="rounded=1;whiteSpace=wrap;html=1;fillColor=#ffcd28;strokeColor=#d79b00;gradientColor=#ffa500;" vertex="1" parent="1">
          <mxGeometry x="350" y="298" width="50" height="30" as="geometry" />
        </mxCell>
        <mxCell id="rqJbpcBszAOMCiAs2xC1-24" value="&lt;font style=&quot;font-size: 14px;&quot;&gt;&amp;lt;K,V&amp;gt;&lt;/font&gt;" style="rounded=1;whiteSpace=wrap;html=1;fillColor=#ffcd28;strokeColor=#d79b00;gradientColor=#ffa500;" vertex="1" parent="1">
          <mxGeometry x="420" y="298" width="50" height="30" as="geometry" />
        </mxCell>
        <mxCell id="rqJbpcBszAOMCiAs2xC1-41" value="&lt;font style=&quot;font-size: 36px;&quot;&gt;HashMap&lt;/font&gt;" style="text;html=1;align=center;verticalAlign=middle;whiteSpace=wrap;rounded=0;" vertex="1" parent="1">
          <mxGeometry x="340" y="40" width="60" height="30" as="geometry" />
        </mxCell>
        <mxCell id="rqJbpcBszAOMCiAs2xC1-43" value="&lt;font style=&quot;font-size: 24px;&quot;&gt;table&lt;/font&gt;" style="text;html=1;align=center;verticalAlign=middle;whiteSpace=wrap;rounded=0;" vertex="1" parent="1">
          <mxGeometry x="110" y="56" width="60" height="30" as="geometry" />
        </mxCell>
      </root>
    </mxGraphModel>
  </diagram>
</mxfile>
